<mxfile host="app.diagrams.net" agent="Mozilla/5.0 (Windows NT 10.0; Win64; x64) AppleWebKit/537.36 (KHTML, like Gecko) Chrome/127.0.0.0 Safari/537.36" version="24.7.7">
  <diagram name="Página-1" id="EL_KJ8rC0fLjsbg1RFDB">
    <mxGraphModel dx="2261" dy="746" grid="1" gridSize="10" guides="1" tooltips="1" connect="1" arrows="1" fold="1" page="1" pageScale="1" pageWidth="827" pageHeight="1169" math="0" shadow="0">
      <root>
        <mxCell id="0" />
        <mxCell id="1" parent="0" />
        <mxCell id="40_1QeHmnroJbZyaDv-z-19" value="Usuário" style="swimlane;childLayout=stackLayout;horizontal=1;startSize=50;horizontalStack=0;rounded=1;fontSize=14;fontStyle=0;strokeWidth=2;resizeParent=0;resizeLast=1;shadow=0;dashed=0;align=center;arcSize=4;whiteSpace=wrap;html=1;" vertex="1" parent="1">
          <mxGeometry x="-140" y="20" width="250" height="170" as="geometry" />
        </mxCell>
        <mxCell id="40_1QeHmnroJbZyaDv-z-20" value="+id | PK | Int | Not null&lt;br&gt;+email | UNI | Varchar | Not null&lt;br&gt;+senha | Varchar | Not null&lt;div&gt;+admin | Bolean | Not null&lt;/div&gt;&lt;div&gt;+tokenForgotPassword | Varchar&lt;/div&gt;&lt;div&gt;+tokenTimeValid | TimeStap&lt;/div&gt;&lt;div&gt;+dataCriação | DateTime | Not null&lt;/div&gt;" style="align=left;strokeColor=none;fillColor=none;spacingLeft=4;fontSize=12;verticalAlign=top;resizable=0;rotatable=0;part=1;html=1;" vertex="1" parent="40_1QeHmnroJbZyaDv-z-19">
          <mxGeometry y="50" width="250" height="120" as="geometry" />
        </mxCell>
        <mxCell id="40_1QeHmnroJbZyaDv-z-21" value="Dados_Usuário" style="swimlane;childLayout=stackLayout;horizontal=1;startSize=50;horizontalStack=0;rounded=1;fontSize=14;fontStyle=0;strokeWidth=2;resizeParent=0;resizeLast=1;shadow=0;dashed=0;align=center;arcSize=4;whiteSpace=wrap;html=1;" vertex="1" parent="1">
          <mxGeometry x="390" y="22" width="220" height="182.5" as="geometry" />
        </mxCell>
        <mxCell id="40_1QeHmnroJbZyaDv-z-22" value="&lt;div&gt;+id PK | FK | Int | Not null&lt;/div&gt;+nome | Varchar | Not null&lt;div&gt;+cpf | UNI | Varchar | Not null&lt;br&gt;&lt;div&gt;+telefone | Varchar | Not null&lt;/div&gt;&lt;div&gt;+endereço | Varchar | Not null&lt;/div&gt;&lt;div&gt;+datanascimento | Date | Not null&lt;/div&gt;&lt;/div&gt;&lt;div&gt;+sexo | Char | Not null&lt;/div&gt;" style="align=left;strokeColor=none;fillColor=none;spacingLeft=4;fontSize=12;verticalAlign=top;resizable=0;rotatable=0;part=1;html=1;" vertex="1" parent="40_1QeHmnroJbZyaDv-z-21">
          <mxGeometry y="50" width="220" height="132.5" as="geometry" />
        </mxCell>
        <mxCell id="40_1QeHmnroJbZyaDv-z-23" value="Setor" style="swimlane;childLayout=stackLayout;horizontal=1;startSize=50;horizontalStack=0;rounded=1;fontSize=14;fontStyle=0;strokeWidth=2;resizeParent=0;resizeLast=1;shadow=0;dashed=0;align=center;arcSize=4;whiteSpace=wrap;html=1;" vertex="1" parent="1">
          <mxGeometry x="-300" y="420.5" width="160" height="120" as="geometry" />
        </mxCell>
        <mxCell id="40_1QeHmnroJbZyaDv-z-24" value="+id | PK | int | Not null&lt;br&gt;&lt;div&gt;+setor | Varchar | Not null&lt;/div&gt;" style="align=left;strokeColor=none;fillColor=none;spacingLeft=4;fontSize=12;verticalAlign=top;resizable=0;rotatable=0;part=1;html=1;" vertex="1" parent="40_1QeHmnroJbZyaDv-z-23">
          <mxGeometry y="50" width="160" height="70" as="geometry" />
        </mxCell>
        <mxCell id="40_1QeHmnroJbZyaDv-z-25" value="Status_Processo_Seletivo" style="swimlane;childLayout=stackLayout;horizontal=1;startSize=50;horizontalStack=0;rounded=1;fontSize=14;fontStyle=0;strokeWidth=2;resizeParent=0;resizeLast=1;shadow=0;dashed=0;align=center;arcSize=4;whiteSpace=wrap;html=1;" vertex="1" parent="1">
          <mxGeometry x="-82" y="871.25" width="255" height="170" as="geometry" />
        </mxCell>
        <mxCell id="40_1QeHmnroJbZyaDv-z-26" value="+id | PK | Int | Not null&lt;div&gt;+id_vaga&amp;nbsp;&lt;span style=&quot;background-color: initial;&quot;&gt;| FK | Int | Not null&lt;/span&gt;&lt;/div&gt;&lt;div&gt;+etapa_atual | Enum |&lt;/div&gt;&lt;div&gt;&lt;span style=&quot;background-color: initial;&quot;&gt;+data_entrevista | DateTime |&amp;nbsp;&lt;/span&gt;&lt;/div&gt;&lt;div&gt;&lt;span style=&quot;background-color: initial;&quot;&gt;+status_processo | Enum&lt;/span&gt;&lt;/div&gt;&lt;div&gt;+perfil | Varchar |&lt;/div&gt;&lt;div&gt;+feedback | Text |&lt;/div&gt;" style="align=left;strokeColor=none;fillColor=none;spacingLeft=4;fontSize=12;verticalAlign=top;resizable=0;rotatable=0;part=1;html=1;" vertex="1" parent="40_1QeHmnroJbZyaDv-z-25">
          <mxGeometry y="50" width="255" height="120" as="geometry" />
        </mxCell>
        <mxCell id="40_1QeHmnroJbZyaDv-z-27" value="Questionário" style="swimlane;childLayout=stackLayout;horizontal=1;startSize=50;horizontalStack=0;rounded=1;fontSize=14;fontStyle=0;strokeWidth=2;resizeParent=0;resizeLast=1;shadow=0;dashed=0;align=center;arcSize=4;whiteSpace=wrap;html=1;" vertex="1" parent="1">
          <mxGeometry x="330" y="487" width="220" height="157" as="geometry">
            <mxRectangle x="386" y="240" width="130" height="50" as="alternateBounds" />
          </mxGeometry>
        </mxCell>
        <mxCell id="40_1QeHmnroJbZyaDv-z-28" value="+id | PK | Int | Not null&lt;div&gt;+id_vaga&amp;nbsp;&amp;nbsp;| FK | Int | Not null&lt;br&gt;+id_pergunta&amp;nbsp;&lt;span style=&quot;background-color: initial;&quot;&gt;&amp;nbsp;&lt;/span&gt;&lt;span style=&quot;background-color: initial;&quot;&gt;| FK | Int | Not null&lt;/span&gt;&lt;/div&gt;&lt;div&gt;+resposta | Text | Not null&lt;/div&gt;&lt;div&gt;+avaliação_resposta | Enum |&amp;nbsp;&lt;br&gt;&lt;div&gt;+currículo | UNI | Varchar | Not null&lt;/div&gt;&lt;/div&gt;" style="align=left;strokeColor=none;fillColor=none;spacingLeft=4;fontSize=12;verticalAlign=top;resizable=0;rotatable=0;part=1;html=1;" vertex="1" parent="40_1QeHmnroJbZyaDv-z-27">
          <mxGeometry y="50" width="220" height="107" as="geometry" />
        </mxCell>
        <mxCell id="40_1QeHmnroJbZyaDv-z-30" value="Pergunta" style="swimlane;childLayout=stackLayout;horizontal=1;startSize=50;horizontalStack=0;rounded=1;fontSize=14;fontStyle=0;strokeWidth=2;resizeParent=0;resizeLast=1;shadow=0;dashed=0;align=center;arcSize=4;whiteSpace=wrap;html=1;" vertex="1" parent="1">
          <mxGeometry x="780" y="523" width="160" height="120" as="geometry" />
        </mxCell>
        <mxCell id="40_1QeHmnroJbZyaDv-z-31" value="+id | PK | Int | Not null&lt;br&gt;+pergunta | Text | Not null&lt;div&gt;&lt;br&gt;&lt;/div&gt;" style="align=left;strokeColor=none;fillColor=none;spacingLeft=4;fontSize=12;verticalAlign=top;resizable=0;rotatable=0;part=1;html=1;" vertex="1" parent="40_1QeHmnroJbZyaDv-z-30">
          <mxGeometry y="50" width="160" height="70" as="geometry" />
        </mxCell>
        <mxCell id="40_1QeHmnroJbZyaDv-z-38" value="0,1" style="text;html=1;align=center;verticalAlign=middle;whiteSpace=wrap;rounded=0;" vertex="1" parent="1">
          <mxGeometry x="111" y="97.5" width="60" height="30" as="geometry" />
        </mxCell>
        <mxCell id="40_1QeHmnroJbZyaDv-z-39" value="1,1" style="text;html=1;align=center;verticalAlign=middle;whiteSpace=wrap;rounded=0;" vertex="1" parent="1">
          <mxGeometry x="330" y="97.5" width="60" height="30" as="geometry" />
        </mxCell>
        <mxCell id="40_1QeHmnroJbZyaDv-z-41" value="0,n" style="text;html=1;align=center;verticalAlign=middle;whiteSpace=wrap;rounded=0;" vertex="1" parent="1">
          <mxGeometry x="-10" y="190" width="60" height="30" as="geometry" />
        </mxCell>
        <mxCell id="40_1QeHmnroJbZyaDv-z-46" value="1,1" style="text;html=1;align=center;verticalAlign=middle;whiteSpace=wrap;rounded=0;" vertex="1" parent="1">
          <mxGeometry x="270" y="560" width="60" height="30" as="geometry" />
        </mxCell>
        <mxCell id="40_1QeHmnroJbZyaDv-z-47" value="1,1" style="text;html=1;align=center;verticalAlign=middle;whiteSpace=wrap;rounded=0;" vertex="1" parent="1">
          <mxGeometry x="-220" y="540.5" width="60" height="30" as="geometry" />
        </mxCell>
        <mxCell id="40_1QeHmnroJbZyaDv-z-48" value="1,1" style="text;html=1;align=center;verticalAlign=middle;whiteSpace=wrap;rounded=0;" vertex="1" parent="1">
          <mxGeometry x="45" y="706.25" width="60" height="30" as="geometry" />
        </mxCell>
        <mxCell id="40_1QeHmnroJbZyaDv-z-49" value="1,1" style="text;html=1;align=center;verticalAlign=middle;whiteSpace=wrap;rounded=0;" vertex="1" parent="1">
          <mxGeometry x="45" y="841.25" width="60" height="30" as="geometry" />
        </mxCell>
        <mxCell id="40_1QeHmnroJbZyaDv-z-50" value="1,n" style="text;html=1;align=center;verticalAlign=middle;whiteSpace=wrap;rounded=0;" vertex="1" parent="1">
          <mxGeometry x="720" y="560" width="60" height="30" as="geometry" />
        </mxCell>
        <mxCell id="40_1QeHmnroJbZyaDv-z-51" value="1,n" style="text;html=1;align=center;verticalAlign=middle;whiteSpace=wrap;rounded=0;" vertex="1" parent="1">
          <mxGeometry x="540" y="560" width="60" height="30" as="geometry" />
        </mxCell>
        <mxCell id="40_1QeHmnroJbZyaDv-z-55" value="1,n" style="text;html=1;align=center;verticalAlign=middle;whiteSpace=wrap;rounded=0;" vertex="1" parent="1">
          <mxGeometry x="10" y="490" width="60" height="30" as="geometry" />
        </mxCell>
        <mxCell id="40_1QeHmnroJbZyaDv-z-56" value="Vaga" style="swimlane;childLayout=stackLayout;horizontal=1;startSize=50;horizontalStack=0;rounded=1;fontSize=14;fontStyle=0;strokeWidth=2;resizeParent=0;resizeLast=1;shadow=0;dashed=0;align=center;arcSize=4;whiteSpace=wrap;html=1;" vertex="1" parent="1">
          <mxGeometry x="-70" y="520" width="230" height="186.25" as="geometry" />
        </mxCell>
        <mxCell id="40_1QeHmnroJbZyaDv-z-57" value="&lt;div&gt;+id | PK | Int | Not null&lt;/div&gt;&lt;div&gt;+id_setor | FK | Int | Not null&lt;/div&gt;&lt;div&gt;+id_questionario&amp;nbsp;&lt;span style=&quot;background-color: initial;&quot;&gt;&amp;nbsp;&lt;/span&gt;&lt;span style=&quot;background-color: initial;&quot;&gt;| FK | Int | Not null&lt;/span&gt;&lt;br&gt;&lt;/div&gt;&lt;div&gt;+título | Varchar | Not null&lt;/div&gt;&lt;div&gt;+descrição_vaga | Text | Not null&lt;/div&gt;&lt;div&gt;+quantidade_vagas | Int | Not null&lt;/div&gt;&lt;div&gt;+data_abertura | Date | Not null&lt;/div&gt;&lt;div&gt;+data_encerramento | Date | Not null&lt;/div&gt;" style="align=left;strokeColor=none;fillColor=none;spacingLeft=4;fontSize=12;verticalAlign=top;resizable=0;rotatable=0;part=1;html=1;" vertex="1" parent="40_1QeHmnroJbZyaDv-z-56">
          <mxGeometry y="50" width="230" height="136.25" as="geometry" />
        </mxCell>
        <mxCell id="40_1QeHmnroJbZyaDv-z-59" value="0,n" style="text;html=1;align=center;verticalAlign=middle;whiteSpace=wrap;rounded=0;" vertex="1" parent="1">
          <mxGeometry x="-130" y="607.25" width="60" height="30" as="geometry" />
        </mxCell>
        <mxCell id="40_1QeHmnroJbZyaDv-z-60" value="1,n" style="text;html=1;align=center;verticalAlign=middle;whiteSpace=wrap;rounded=0;" vertex="1" parent="1">
          <mxGeometry x="160" y="607.25" width="60" height="30" as="geometry" />
        </mxCell>
        <mxCell id="40_1QeHmnroJbZyaDv-z-64" style="edgeStyle=orthogonalEdgeStyle;rounded=0;orthogonalLoop=1;jettySize=auto;html=1;entryX=0;entryY=0.5;entryDx=0;entryDy=0;startArrow=ERzeroToOne;startFill=0;endArrow=ERone;endFill=0;" edge="1" parent="1" source="40_1QeHmnroJbZyaDv-z-20" target="40_1QeHmnroJbZyaDv-z-22">
          <mxGeometry relative="1" as="geometry" />
        </mxCell>
        <mxCell id="40_1QeHmnroJbZyaDv-z-65" value="Inscrição" style="swimlane;childLayout=stackLayout;horizontal=1;startSize=50;horizontalStack=0;rounded=1;fontSize=14;fontStyle=0;strokeWidth=2;resizeParent=0;resizeLast=1;shadow=0;dashed=0;align=center;arcSize=4;whiteSpace=wrap;html=1;" vertex="1" parent="1">
          <mxGeometry x="-95" y="280" width="210" height="120" as="geometry" />
        </mxCell>
        <mxCell id="40_1QeHmnroJbZyaDv-z-66" value="+id_usuario | FK | Int | Not null&lt;br&gt;+id_vaga | FK | Int | Not null&lt;br&gt;+data_inscrição | DateTime | Not null" style="align=left;strokeColor=none;fillColor=none;spacingLeft=4;fontSize=12;verticalAlign=top;resizable=0;rotatable=0;part=1;html=1;" vertex="1" parent="40_1QeHmnroJbZyaDv-z-65">
          <mxGeometry y="50" width="210" height="70" as="geometry" />
        </mxCell>
        <mxCell id="40_1QeHmnroJbZyaDv-z-68" style="edgeStyle=orthogonalEdgeStyle;rounded=0;orthogonalLoop=1;jettySize=auto;html=1;entryX=0.5;entryY=0;entryDx=0;entryDy=0;startArrow=ERzeroToMany;startFill=0;endArrow=ERoneToMany;endFill=0;" edge="1" parent="1" source="40_1QeHmnroJbZyaDv-z-20" target="40_1QeHmnroJbZyaDv-z-65">
          <mxGeometry relative="1" as="geometry" />
        </mxCell>
        <mxCell id="40_1QeHmnroJbZyaDv-z-69" style="edgeStyle=orthogonalEdgeStyle;rounded=0;orthogonalLoop=1;jettySize=auto;html=1;entryX=0.5;entryY=0;entryDx=0;entryDy=0;endArrow=ERoneToMany;endFill=0;startArrow=ERzeroToMany;startFill=0;" edge="1" parent="1" source="40_1QeHmnroJbZyaDv-z-66" target="40_1QeHmnroJbZyaDv-z-56">
          <mxGeometry relative="1" as="geometry" />
        </mxCell>
        <mxCell id="40_1QeHmnroJbZyaDv-z-70" value="0,n" style="text;html=1;align=center;verticalAlign=middle;whiteSpace=wrap;rounded=0;" vertex="1" parent="1">
          <mxGeometry x="10" y="400" width="60" height="30" as="geometry" />
        </mxCell>
        <mxCell id="40_1QeHmnroJbZyaDv-z-71" value="1,n" style="text;html=1;align=center;verticalAlign=middle;whiteSpace=wrap;rounded=0;" vertex="1" parent="1">
          <mxGeometry x="10" y="248" width="60" height="30" as="geometry" />
        </mxCell>
        <mxCell id="40_1QeHmnroJbZyaDv-z-72" style="edgeStyle=orthogonalEdgeStyle;rounded=0;orthogonalLoop=1;jettySize=auto;html=1;startArrow=ERone;startFill=0;endArrow=ERone;endFill=0;" edge="1" parent="1" source="40_1QeHmnroJbZyaDv-z-57" target="40_1QeHmnroJbZyaDv-z-25">
          <mxGeometry relative="1" as="geometry" />
        </mxCell>
        <mxCell id="40_1QeHmnroJbZyaDv-z-73" style="edgeStyle=orthogonalEdgeStyle;rounded=0;orthogonalLoop=1;jettySize=auto;html=1;entryX=0.5;entryY=1;entryDx=0;entryDy=0;startArrow=ERzeroToMany;startFill=0;endArrow=ERone;endFill=0;" edge="1" parent="1" source="40_1QeHmnroJbZyaDv-z-57" target="40_1QeHmnroJbZyaDv-z-24">
          <mxGeometry relative="1" as="geometry" />
        </mxCell>
        <mxCell id="40_1QeHmnroJbZyaDv-z-74" style="edgeStyle=orthogonalEdgeStyle;rounded=0;orthogonalLoop=1;jettySize=auto;html=1;startArrow=ERoneToMany;startFill=0;endArrow=ERone;endFill=0;" edge="1" parent="1" source="40_1QeHmnroJbZyaDv-z-57" target="40_1QeHmnroJbZyaDv-z-28">
          <mxGeometry relative="1" as="geometry" />
        </mxCell>
        <mxCell id="40_1QeHmnroJbZyaDv-z-75" style="edgeStyle=orthogonalEdgeStyle;rounded=0;orthogonalLoop=1;jettySize=auto;html=1;entryX=0;entryY=0.25;entryDx=0;entryDy=0;startArrow=ERoneToMany;startFill=0;endArrow=ERoneToMany;endFill=0;" edge="1" parent="1" source="40_1QeHmnroJbZyaDv-z-28" target="40_1QeHmnroJbZyaDv-z-31">
          <mxGeometry relative="1" as="geometry" />
        </mxCell>
      </root>
    </mxGraphModel>
  </diagram>
</mxfile>
